<svg width="96" height="107" viewBox="0 0 96 107" fill="none" xmlns="http://www.w3.org/2000/svg">
<path d="M42.6667 0C43.3778 0 44.0231 0.0449194 44.6027 0.13476C45.1822 0.2246 45.7813 0.404282 46.4 0.673803L78.4 12.8023C80.4444 13.6108 82.112 14.9135 83.4026 16.7103C84.6933 18.5071 85.3369 20.5285 85.3333 22.7746V39.6196C85.3333 41.1469 84.8231 42.4281 83.8026 43.463C82.7822 44.498 81.5146 45.0137 80 45.0101C78.4853 45.0065 77.2195 44.489 76.2026 43.4576C75.1858 42.4263 74.6738 41.1469 74.6666 39.6196V22.9093L42.6667 10.7809L10.6667 22.9093V48.2443C10.6667 52.7364 11.312 57.2284 12.6027 61.7204C13.8933 66.2124 15.6711 70.4798 17.936 74.5227C20.2009 78.5655 22.9564 82.204 26.2027 85.4383C29.4489 88.6725 32.9813 91.3228 36.8 93.3892C38.1333 94.1079 39.0898 95.141 39.6693 96.4886C40.2489 97.8363 40.2702 99.1839 39.7333 100.531C39.1111 101.969 38.112 102.957 36.736 103.496C35.36 104.035 34.0035 103.945 32.6667 103.227C22.6222 98.1956 14.6667 90.6041 8.8 80.4521C2.93333 70.3002 0 59.5642 0 48.2443V22.7746C0 20.5285 0.645333 18.5071 1.936 16.7103C3.22667 14.9135 4.89244 13.6108 6.93333 12.8023L38.9333 0.673803C39.5555 0.404282 40.1778 0.2246 40.8 0.13476C41.4222 0.0449194 42.0444 0 42.6667 0ZM69.3333 107C61.9555 107 55.6675 104.371 50.4693 99.1138C45.2711 93.8563 42.6702 87.501 42.6667 80.0478C42.6631 72.5947 45.264 66.2394 50.4693 60.9819C55.6747 55.7244 61.9627 53.0957 69.3333 53.0957C76.704 53.0957 82.9938 55.7244 88.2026 60.9819C93.4115 66.2394 96.0106 72.5947 96 80.0478C95.9893 87.501 93.3884 93.8581 88.1973 99.1192C83.0062 104.38 76.7182 107.007 69.3333 107ZM69.3333 80.0478C71.5555 80.0478 73.4453 79.2626 75.0026 77.6922C76.56 76.1218 77.3369 74.2118 77.3333 71.9622C77.3298 69.7126 76.5529 67.8044 75.0026 66.2376C73.4524 64.6708 71.5626 63.8838 69.3333 63.8766C67.104 63.8694 65.216 64.6564 63.6693 66.2376C62.1226 67.8188 61.344 69.727 61.3333 71.9622C61.3226 74.1974 62.1013 76.1074 63.6693 77.6922C65.2373 79.277 67.1253 80.0622 69.3333 80.0478ZM69.3333 96.2191C71.5555 96.2191 73.6444 95.7915 75.6 94.9362C77.5555 94.0809 79.2889 92.8465 80.8 91.233C81.2444 90.6939 81.4222 90.0884 81.3333 89.4164C81.2444 88.7444 80.8444 88.2269 80.1333 87.864C78.4444 87.0554 76.6898 86.4499 74.8693 86.0474C73.0489 85.6449 71.2035 85.4419 69.3333 85.4383C67.4631 85.4347 65.6195 85.6377 63.8026 86.0474C61.9858 86.4571 60.2293 87.0626 58.5333 87.864C57.8222 88.2233 57.4222 88.7408 57.3333 89.4164C57.2444 90.092 57.4222 90.6975 57.8666 91.233C59.3778 92.8501 61.1111 94.0863 63.0666 94.9416C65.0222 95.7969 67.1111 96.2227 69.3333 96.2191Z" fill="white"/>
</svg>
