<svg width="14" height="20" viewBox="0 0 14 20" fill="none" xmlns="http://www.w3.org/2000/svg">
<path d="M5.00019 3.99986C4.73497 3.99986 4.48062 4.10522 4.29308 4.29275C4.10554 4.48029 4.00019 4.73464 4.00019 4.99986L4.00019 16.5899L1.71019 14.2899C1.52188 14.1016 1.26649 13.9958 1.00019 13.9958C0.733884 13.9958 0.478489 14.1016 0.290185 14.2899C0.101882 14.4782 -0.00390625 14.7336 -0.00390625 14.9999C-0.00390625 15.2662 0.101882 15.5216 0.290185 15.7099L4.29019 19.7099C4.43081 19.8486 4.60938 19.9426 4.80337 19.98C4.99736 20.0174 5.19807 19.9964 5.38019 19.9199C5.5628 19.8448 5.71913 19.7174 5.82946 19.5537C5.9398 19.39 5.9992 19.1973 6.00019 18.9999L6.00019 4.99986C6.00019 4.73464 5.89483 4.48029 5.70729 4.29275C5.51976 4.10522 5.2654 3.99986 5.00019 3.99986ZM8.62019 0.0798607C8.43757 0.154881 8.28124 0.282278 8.17091 0.445999C8.06057 0.60972 8.00117 0.802435 8.00019 0.999861L8.00019 14.9999C8.00019 15.2651 8.10554 15.5194 8.29308 15.707C8.48062 15.8945 8.73497 15.9999 9.00019 15.9999C9.2654 15.9999 9.51976 15.8945 9.70729 15.707C9.89483 15.5194 10.0002 15.2651 10.0002 14.9999L10.0002 3.40986L12.2902 5.70986C12.3831 5.80359 12.4937 5.87798 12.6156 5.92875C12.7375 5.97952 12.8682 6.00566 13.0002 6.00566C13.1322 6.00566 13.2629 5.97952 13.3848 5.92875C13.5066 5.87798 13.6172 5.80359 13.7102 5.70986C13.8039 5.6169 13.8783 5.5063 13.9291 5.38444C13.9798 5.26258 14.006 5.13187 14.006 4.99986C14.006 4.86785 13.9798 4.73714 13.9291 4.61528C13.8783 4.49342 13.8039 4.38282 13.7102 4.28986L9.71019 0.289862C9.56956 0.151104 9.39099 0.0571079 9.197 0.0197334C9.00301 -0.0176411 8.8023 0.00328064 8.62019 0.0798607Z" fill="#878585"/>
</svg>
